<?xml version="1.0" standalone="no"?>
<!DOCTYPE svg PUBLIC "-//W3C//DTD SVG 20010904//EN"
 "http://www.w3.org/TR/2001/REC-SVG-20010904/DTD/svg10.dtd">
<svg version="1.0" xmlns="http://www.w3.org/2000/svg"
 width="2150.000000pt" height="2150.000000pt" viewBox="0 0 2150.000000 2150.000000"
 preserveAspectRatio="xMidYMid meet">
<metadata>
Created by potrace 1.15, written by Peter Selinger 2001-2017
</metadata>
<g transform="translate(0.000000,2150.000000) scale(0.100000,-0.100000)"
fill="#000000" stroke="none">
<path d="M10610 21414 c-176 -32 -299 -76 -414 -148 -39 -25 -424 -319 -856
-655 l-785 -610 -1971 -1 c-1720 0 -1983 -2 -2060 -15 -387 -67 -715 -344
-832 -705 -60 -184 -56 -62 -62 -1650 l-5 -1455 -1690 -1312 c-929 -722 -1709
-1332 -1733 -1355 -55 -54 -90 -113 -108 -180 -21 -82 -21 -12236 1 -12359 47
-269 194 -510 413 -673 138 -104 293 -172 461 -201 73 -13 1300 -15 9781 -15
8481 0 9708 2 9781 15 282 49 548 221 706 455 79 117 144 278 168 419 22 123
22 12277 1 12359 -18 65 -53 125 -104 177 -22 22 -803 632 -1736 1355 l-1695
1315 0 1381 c-1 881 -5 1419 -11 1483 -26 250 -134 476 -312 652 -132 131
-296 225 -486 277 l-97 27 -2012 5 -2013 5 -772 600 c-425 330 -805 622 -845
648 -87 58 -209 111 -318 138 -78 20 -332 34 -395 23z m268 -740 c23 -10 231
-165 461 -344 l419 -325 -504 -3 c-277 -1 -731 -1 -1008 0 l-504 3 410 320
c226 176 422 326 437 334 82 45 208 51 289 15z m6064 -1432 c81 -40 149 -111
177 -188 l21 -55 0 -3232 c0 -2177 4 -3253 10 -3296 6 -35 20 -82 31 -104 32
-61 105 -134 168 -164 50 -25 67 -28 156 -28 82 0 109 4 147 22 88 40 165 128
202 228 7 21 12 446 16 1431 l5 1400 1146 -890 c630 -490 1187 -923 1238 -962
l92 -72 -2953 -2292 c-1624 -1260 -2978 -2318 -3009 -2350 -78 -80 -102 -145
-97 -260 6 -148 74 -251 206 -313 58 -27 77 -31 147 -30 57 0 96 6 135 22 42
16 738 552 2985 2297 l2930 2275 3 -5652 c1 -3109 0 -5654 -2 -5656 -2 -3
-2098 1622 -4658 3609 -2559 1988 -4675 3629 -4701 3647 -74 50 -223 117 -312
140 -316 81 -661 17 -905 -169 -19 -15 -2122 -1648 -4674 -3629 -2551 -1981
-4640 -3600 -4642 -3598 -2 2 -3 2547 -2 5655 l3 5652 2921 -2268 c1982 -1539
2938 -2276 2975 -2292 73 -32 189 -32 271 -1 79 31 150 97 190 179 30 60 33
75 33 157 0 81 -3 97 -32 155 -18 36 -49 81 -70 101 -21 20 -1359 1061 -2973
2314 -1614 1252 -2943 2285 -2952 2294 -16 15 64 79 1220 977 l1237 961 5
-1406 5 -1406 32 -67 c37 -79 94 -137 171 -175 51 -25 68 -28 157 -28 89 0
106 3 156 28 67 32 142 109 172 175 l22 47 5 3285 5 3285 23 56 c40 100 129
182 235 215 35 10 1118 12 6152 11 l6110 -2 67 -33z m-6060 -11191 c38 -17
1602 -1226 4705 -3636 l4648 -3610 -4742 -3 c-2609 -1 -6877 -1 -9486 0
l-4743 3 4653 3615 c2559 1988 4671 3623 4694 3633 92 42 179 41 271 -2z"/>
<path d="M10455 18570 c-1474 -108 -2764 -940 -3467 -2235 -260 -478 -422
-1002 -490 -1590 -20 -173 -17 -744 5 -925 145 -1174 724 -2194 1652 -2910
707 -546 1619 -863 2505 -872 149 -1 170 1 222 21 79 31 150 97 190 179 30 60
33 75 33 157 0 78 -4 98 -29 153 -37 80 -114 152 -194 182 -48 19 -89 24 -257
30 -530 22 -993 139 -1445 364 -854 427 -1499 1164 -1796 2053 -178 533 -228
1107 -144 1664 80 533 290 1053 605 1503 225 323 528 626 860 863 684 488
1544 715 2395 632 807 -79 1568 -439 2146 -1014 301 -300 506 -585 689 -960
170 -346 268 -659 325 -1032 37 -243 41 -396 38 -1253 l-3 -825 -27 -80 c-119
-350 -469 -554 -823 -480 -38 8 -113 36 -165 61 -168 83 -303 243 -366 434
-17 51 -19 118 -24 880 l-5 825 -27 57 c-54 116 -149 188 -275 210 -60 10 -80
9 -139 -5 -125 -31 -225 -124 -258 -240 -8 -29 -19 -117 -25 -197 -27 -367
-165 -669 -425 -925 -195 -192 -442 -322 -726 -382 -120 -25 -402 -25 -520 0
-594 125 -1022 559 -1136 1152 -24 121 -24 356 0 485 37 205 138 437 261 601
124 165 323 332 504 424 166 83 352 131 564 145 78 5 156 13 173 18 92 28 178
104 220 195 25 54 29 74 29 152 0 82 -3 97 -33 157 -40 81 -111 149 -188 177
-45 17 -78 21 -189 21 -454 0 -928 -173 -1300 -473 -103 -83 -274 -259 -354
-365 -168 -222 -302 -500 -372 -776 -54 -211 -75 -547 -49 -766 59 -489 269
-920 614 -1266 315 -315 702 -516 1151 -597 164 -29 534 -31 699 -4 376 64
744 229 1014 456 40 34 77 59 82 56 6 -3 10 -19 10 -35 0 -47 56 -250 94 -341
132 -311 377 -574 679 -726 96 -48 284 -108 396 -127 120 -20 347 -21 466 -1
589 96 1038 527 1172 1126 15 65 17 180 20 969 3 596 1 945 -7 1045 -42 569
-187 1099 -437 1599 -93 186 -141 268 -269 461 -632 955 -1639 1622 -2762
1831 -321 59 -781 86 -1087 64z"/>
</g>
</svg>
